<!-- =======================================================================
My Journey Icons Sprite v1.0 — ASSEMBLATO (70 symbol)
Fonte: sprite-parts/part-01..04 (consegna designer, verbatim)
Uso: fill:none; stroke:currentColor; stroke-width:2; stroke-linecap/linejoin:round
======================================================================= -->
<svg xmlns="http://www.w3.org/2000/svg" style="display:none">

<!-- =======================================================================
My Journey Icons Sprite v1.0
PART 01 / Core Navigation
======================================================================= -->



<!-- HOME -->

<symbol id="home" viewBox="0 0 24 24">
<path d="M3 10.5L12 3l9 7.5"/>
<path d="M5 9.5V21h14V9.5"/>
<path d="M9 21v-6h6v6"/>
</symbol>

<!-- TRIP -->

<symbol id="trip" viewBox="0 0 24 24">
<path d="M5 19h14"/>
<path d="M6 17L18 5"/>
<path d="M14 5h4v4"/>
<circle cx="7" cy="17" r="1"/>
<circle cx="18" cy="5" r="1"/>
</symbol>

<!-- MAP -->

<symbol id="map" viewBox="0 0 24 24">
<path d="M3 6l6-2 6 2 6-2v14l-6 2-6-2-6 2z"/>
<path d="M9 4v16"/>
<path d="M15 6v16"/>
</symbol>

<!-- JOURNAL -->

<symbol id="journal" viewBox="0 0 24 24">
<path d="M6 3h9a3 3 0 013 3v15H9a3 3 0 00-3 3"/>
<path d="M6 3v18"/>
<path d="M10 8h5"/>
<path d="M10 12h5"/>
<path d="M10 16h3"/>
</symbol>

<!-- ALBUM -->

<symbol id="album" viewBox="0 0 24 24">
<rect x="3" y="5" width="18" height="14" rx="2"/>
<circle cx="9" cy="10" r="1.5"/>
<path d="M6 17l5-5 3 3 4-4 2 2"/>
</symbol>

<!-- MEMORIES -->

<symbol id="memories" viewBox="0 0 24 24">
<path d="M12 21s-7-4.8-7-10a4 4 0 017-2.5A4 4 0 0119 11c0 5.2-7 10-7 10z"/>
</symbol>

<!-- TICKETS -->

<symbol id="tickets" viewBox="0 0 24 24">
<path d="M4 7h16v4a2 2 0 010 4v4H4v-4a2 2 0 010-4z"/>
<path d="M12 7v10"/>
</symbol>

<!-- BUDGET -->

<symbol id="budget" viewBox="0 0 24 24">
<rect x="3" y="6" width="18" height="12" rx="2"/>
<circle cx="17" cy="12" r="1"/>
<path d="M7 12h4"/>
</symbol>

<!-- PACKING -->

<symbol id="packing" viewBox="0 0 24 24">
<rect x="6" y="5" width="12" height="15" rx="2"/>
<path d="M9 5V3h6v2"/>
<path d="M9 11h6"/>
</symbol>

<!-- TROPHIES -->

<symbol id="trophies" viewBox="0 0 24 24">
<path d="M8 4h8v4a4 4 0 01-8 0z"/>
<path d="M12 12v5"/>
<path d="M9 21h6"/>
<path d="M5 5h3v2a3 3 0 01-3 3"/>
<path d="M19 5h-3v2a3 3 0 003 3"/>
</symbol>

<!-- SETTINGS -->

<symbol id="settings" viewBox="0 0 24 24">
<circle cx="12" cy="12" r="3"/>
<path d="M12 2v3M12 19v3M2 12h3M19 12h3M5 5l2 2M17 17l2 2M19 5l-2 2M5 19l2-2"/>
</symbol>

<!-- PROFILE -->

<symbol id="profile" viewBox="0 0 24 24">
<circle cx="12" cy="8" r="4"/>
<path d="M5 20a7 7 0 0114 0"/>
</symbol>

<!-- SEARCH -->

<symbol id="search" viewBox="0 0 24 24">
<circle cx="11" cy="11" r="6"/>
<path d="M20 20l-4-4"/>
</symbol>

<!-- NOTIFICATIONS -->

<symbol id="notifications" viewBox="0 0 24 24">
<path d="M18 16H6l1-2V10a5 5 0 1110 0v4z"/>
<path d="M10 19a2 2 0 004 0"/>
</symbol>

<!-- CALENDAR -->

<symbol id="calendar" viewBox="0 0 24 24">
<rect x="3" y="5" width="18" height="16" rx="2"/>
<path d="M8 3v4M16 3v4M3 10h18"/>
</symbol>

<!-- LOCATION -->

<symbol id="location" viewBox="0 0 24 24">
<path d="M12 21s7-6 7-12a7 7 0 10-14 0c0 6 7 12 7 12z"/>
<circle cx="12" cy="9" r="2.5"/>
</symbol>

<!-- ROUTE -->

<symbol id="route" viewBox="0 0 24 24">
<circle cx="6" cy="18" r="2"/>
<circle cx="18" cy="6" r="2"/>
<path d="M8 18c5 0 5-8 10-8"/>
</symbol>

<!-- COMPASS -->

<symbol id="compass" viewBox="0 0 24 24">
<circle cx="12" cy="12" r="9"/>
<path d="M15.5 8.5l-2 5-5 2 2-5z"/>
</symbol>

<!-- GLOBE -->

<symbol id="globe" viewBox="0 0 24 24">
<circle cx="12" cy="12" r="9"/>
<path d="M3 12h18"/>
<path d="M12 3a15 15 0 010 18"/>
<path d="M12 3a15 15 0 000 18"/>
</symbol>

<!-- DASHBOARD -->

<symbol id="dashboard" viewBox="0 0 24 24">
<rect x="3" y="3" width="8" height="8" rx="2"/>
<rect x="13" y="3" width="8" height="5" rx="2"/>
<rect x="13" y="10" width="8" height="11" rx="2"/>
<rect x="3" y="13" width="8" height="8" rx="2"/>
</symbol>

<!-- =======================================================================
My Journey Icons Sprite v1.0
PART 02 / Actions
======================================================================= -->

<!-- ADD -->

<symbol id="add" viewBox="0 0 24 24">
  <path d="M12 5v14"/>
  <path d="M5 12h14"/>
</symbol>

<!-- REMOVE -->

<symbol id="remove" viewBox="0 0 24 24">
  <path d="M5 12h14"/>
</symbol>

<!-- EDIT -->

<symbol id="edit" viewBox="0 0 24 24">
  <path d="M4 20l4-.8L19 8a2 2 0 0 0-3-3L5 16l-1 4z"/>
  <path d="M14 5l5 5"/>
</symbol>

<!-- DELETE -->

<symbol id="delete" viewBox="0 0 24 24">
  <path d="M5 7h14"/>
  <path d="M9 7V4h6v3"/>
  <path d="M8 7l1 13h6l1-13"/>
  <path d="M10 11v6"/>
  <path d="M14 11v6"/>
</symbol>

<!-- SAVE -->

<symbol id="save" viewBox="0 0 24 24">
  <path d="M5 4h12l2 2v14H5z"/>
  <path d="M8 4v6h8V4"/>
  <path d="M8 20v-5h8v5"/>
</symbol>

<!-- SHARE -->

<symbol id="share" viewBox="0 0 24 24">
  <circle cx="18" cy="5" r="2"/>
  <circle cx="6" cy="12" r="2"/>
  <circle cx="18" cy="19" r="2"/>
  <path d="M8 11l8-5"/>
  <path d="M8 13l8 5"/>
</symbol>

<!-- COPY -->

<symbol id="copy" viewBox="0 0 24 24">
  <rect x="8" y="8" width="11" height="11" rx="2"/>
  <path d="M5 15V5h10"/>
</symbol>

<!-- DOWNLOAD -->

<symbol id="download" viewBox="0 0 24 24">
  <path d="M12 4v11"/>
  <path d="M8 11l4 4 4-4"/>
  <path d="M5 20h14"/>
</symbol>

<!-- UPLOAD -->

<symbol id="upload" viewBox="0 0 24 24">
  <path d="M12 20V9"/>
  <path d="M8 13l4-4 4 4"/>
  <path d="M5 4h14"/>
</symbol>

<!-- FILTER -->

<symbol id="filter" viewBox="0 0 24 24">
  <path d="M4 6h16"/>
  <path d="M7 12h10"/>
  <path d="M10 18h4"/>
</symbol>

<!-- SORT -->

<symbol id="sort" viewBox="0 0 24 24">
  <path d="M8 5v14"/>
  <path d="M5 16l3 3 3-3"/>
  <path d="M16 19V5"/>
  <path d="M13 8l3-3 3 3"/>
</symbol>

<!-- REFRESH -->

<symbol id="refresh" viewBox="0 0 24 24">
  <path d="M20 5v5h-5"/>
  <path d="M20 10a8 8 0 1 0 2 5"/>
</symbol>

<!-- CHECK -->

<symbol id="check" viewBox="0 0 24 24">
  <path d="M5 13l4 4L19 7"/>
</symbol>

<!-- CLOSE -->

<symbol id="close" viewBox="0 0 24 24">
  <path d="M6 6l12 12"/>
  <path d="M18 6L6 18"/>
</symbol>

<!-- INFO -->

<symbol id="info" viewBox="0 0 24 24">
  <circle cx="12" cy="12" r="9"/>
  <path d="M12 11v5"/>
  <circle cx="12" cy="7.5" r=".6"/>
</symbol>

<!-- WARNING -->

<symbol id="warning" viewBox="0 0 24 24">
  <path d="M12 3l9 16H3z"/>
  <path d="M12 9v5"/>
  <circle cx="12" cy="17" r=".6"/>
</symbol>

<!-- ERROR -->

<symbol id="error" viewBox="0 0 24 24">
  <circle cx="12" cy="12" r="9"/>
  <path d="M9 9l6 6"/>
  <path d="M15 9l-6 6"/>
</symbol>

<!-- FAVORITE -->

<symbol id="favorite" viewBox="0 0 24 24">
  <path d="M12 21s-7-5-7-10a4 4 0 017-2.5A4 4 0 0119 11c0 5-7 10-7 10z"/>
</symbol>

<!-- BOOKMARK -->

<symbol id="bookmark" viewBox="0 0 24 24">
  <path d="M7 4h10v16l-5-3-5 3z"/>
</symbol>

<!-- MORE -->

<symbol id="more" viewBox="0 0 24 24">
  <circle cx="6" cy="12" r="1.5"/>
  <circle cx="12" cy="12" r="1.5"/>
  <circle cx="18" cy="12" r="1.5"/>
</symbol>

<!-- =======================================================================
My Journey Icons Sprite v1.0
PART 03 / Travel · Places · Transport
======================================================================= -->

<!-- PLANE -->

<symbol id="plane" viewBox="0 0 24 24">
  <path d="M2 12l20-5-5 5 5 5-20-5z"/>
  <path d="M10 10l-2-5"/>
  <path d="M10 14l-2 5"/>
</symbol>

<!-- AIRPORT -->

<symbol id="airport" viewBox="0 0 24 24">
  <path d="M12 3v18"/>
  <path d="M8 8l4-2 4 2"/>
  <path d="M6 14l6-2 6 2"/>
</symbol>

<!-- HOTEL -->

<symbol id="hotel" viewBox="0 0 24 24">
  <rect x="5" y="4" width="14" height="16" rx="2"/>
  <path d="M9 8h2"/>
  <path d="M13 8h2"/>
  <path d="M9 12h2"/>
  <path d="M13 12h2"/>
  <path d="M8 20v-4h8v4"/>
</symbol>

<!-- RESTAURANT -->

<symbol id="restaurant" viewBox="0 0 24 24">
  <path d="M7 3v8"/>
  <path d="M5 3v5"/>
  <path d="M9 3v5"/>
  <path d="M15 3v18"/>
  <path d="M15 3c2 1 3 3 3 6"/>
</symbol>

<!-- CAFE -->

<symbol id="cafe" viewBox="0 0 24 24">
  <path d="M6 9h10v5a4 4 0 01-4 4h-2a4 4 0 01-4-4z"/>
  <path d="M16 10h2a2 2 0 010 4h-2"/>
  <path d="M8 4c1 1 1 2 0 3"/>
  <path d="M11 4c1 1 1 2 0 3"/>
</symbol>

<!-- BEACH -->

<symbol id="beach" viewBox="0 0 24 24">
  <path d="M4 19h16"/>
  <path d="M12 5v10"/>
  <path d="M12 5a5 5 0 015 5H7a5 5 0 015-5z"/>
</symbol>

<!-- MOUNTAIN -->

<symbol id="mountain" viewBox="0 0 24 24">
  <path d="M3 20L10 8l3 5 2-3 6 10z"/>
</symbol>

<!-- MUSEUM -->

<symbol id="museum" viewBox="0 0 24 24">
  <path d="M3 8l9-4 9 4"/>
  <path d="M5 10h14"/>
  <path d="M7 10v8"/>
  <path d="M11 10v8"/>
  <path d="M15 10v8"/>
  <path d="M4 20h16"/>
</symbol>

<!-- CAR -->

<symbol id="car" viewBox="0 0 24 24">
  <path d="M5 16V11l2-4h10l2 4v5"/>
  <circle cx="8" cy="16" r="2"/>
  <circle cx="16" cy="16" r="2"/>
</symbol>

<!-- TRAIN -->

<symbol id="train" viewBox="0 0 24 24">
  <rect x="6" y="3" width="12" height="14" rx="2"/>
  <path d="M9 7h2"/>
  <path d="M13 7h2"/>
  <path d="M8 17l-2 4"/>
  <path d="M16 17l2 4"/>
</symbol>

<!-- BUS -->

<symbol id="bus" viewBox="0 0 24 24">
  <rect x="5" y="3" width="14" height="15" rx="2"/>
  <circle cx="8" cy="18" r="2"/>
  <circle cx="16" cy="18" r="2"/>
  <path d="M5 8h14"/>
</symbol>

<!-- TAXI -->

<symbol id="taxi" viewBox="0 0 24 24">
  <path d="M6 15V11l2-4h8l2 4v4"/>
  <circle cx="8" cy="16" r="2"/>
  <circle cx="16" cy="16" r="2"/>
  <path d="M10 5h4"/>
</symbol>

<!-- FERRY -->

<symbol id="ferry" viewBox="0 0 24 24">
  <path d="M6 14h12l-2 4H8z"/>
  <path d="M9 14V7h6v7"/>
  <path d="M3 20c2-2 4-2 6 0 2-2 4-2 6 0 2-2 4-2 6 0"/>
</symbol>

<!-- WALK -->

<symbol id="walk" viewBox="0 0 24 24">
  <circle cx="12" cy="5" r="2"/>
  <path d="M12 7l2 5"/>
  <path d="M10 12l-2 4"/>
  <path d="M14 12l3 3"/>
  <path d="M10 10l-3 2"/>
</symbol>

<!-- BIKE -->

<symbol id="bike" viewBox="0 0 24 24">
  <circle cx="6" cy="17" r="3"/>
  <circle cx="18" cy="17" r="3"/>
  <path d="M9 17l3-7h3"/>
  <path d="M12 10l4 7"/>
</symbol>

<!-- CAMPING -->

<symbol id="camping" viewBox="0 0 24 24">
  <path d="M4 20L12 5l8 15z"/>
  <path d="M9 14h6"/>
</symbol>

<!-- PASSPORT -->

<symbol id="passport" viewBox="0 0 24 24">
  <rect x="6" y="3" width="12" height="18" rx="2"/>
  <circle cx="12" cy="10" r="3"/>
  <path d="M9 10h6"/>
  <path d="M12 7v6"/>
</symbol>

<!-- SUITCASE -->

<symbol id="suitcase" viewBox="0 0 24 24">
  <rect x="5" y="7" width="14" height="13" rx="2"/>
  <path d="M9 7V5h6v2"/>
  <path d="M12 7v13"/>
</symbol>

<!-- CAMERA -->

<symbol id="camera" viewBox="0 0 24 24">
  <rect x="3" y="6" width="18" height="13" rx="2"/>
  <circle cx="12" cy="12.5" r="3"/>
  <path d="M8 6l1-2h6l1 2"/>
</symbol>

<!-- PHOTO -->

<symbol id="photo" viewBox="0 0 24 24">
  <rect x="3" y="5" width="18" height="14" rx="2"/>
  <circle cx="9" cy="10" r="1.5"/>
  <path d="M5 17l5-5 4 4 3-3 2 2"/>
</symbol>

<!-- =======================================================================
My Journey Icons Sprite v1.0
PART 04 / Weather · Media · Status
Completes v1.0 (70 icons)
======================================================================= -->

<!-- SUN -->

<symbol id="sun" viewBox="0 0 24 24">
  <circle cx="12" cy="12" r="4"/>
  <path d="M12 2v2"/>
  <path d="M12 20v2"/>
  <path d="M2 12h2"/>
  <path d="M20 12h2"/>
  <path d="M5 5l1.5 1.5"/>
  <path d="M17.5 17.5L19 19"/>
  <path d="M19 5l-1.5 1.5"/>
  <path d="M5 19l1.5-1.5"/>
</symbol>

<!-- CLOUD -->

<symbol id="cloud" viewBox="0 0 24 24">
  <path d="M7 18h10a4 4 0 000-8 6 6 0 00-11-2A4 4 0 007 18z"/>
</symbol>

<!-- RAIN -->

<symbol id="rain" viewBox="0 0 24 24">
  <path d="M7 15h10a4 4 0 000-8 6 6 0 00-11-2A4 4 0 007 15z"/>
  <path d="M9 18l-1 2"/>
  <path d="M13 18l-1 2"/>
  <path d="M17 18l-1 2"/>
</symbol>

<!-- STORM -->

<symbol id="storm" viewBox="0 0 24 24">
  <path d="M7 15h10a4 4 0 000-8 6 6 0 00-11-2A4 4 0 007 15z"/>
  <path d="M12 15l-2 4h3l-2 4"/>
</symbol>

<!-- SNOW -->

<symbol id="snow" viewBox="0 0 24 24">
  <path d="M7 14h10a4 4 0 000-8 6 6 0 00-11-2A4 4 0 007 14z"/>
  <path d="M9 18h0"/>
  <path d="M12 20h0"/>
  <path d="M15 18h0"/>
</symbol>

<!-- VIDEO -->

<symbol id="video" viewBox="0 0 24 24">
  <rect x="3" y="6" width="13" height="12" rx="2"/>
  <path d="M16 10l5-3v10l-5-3z"/>
</symbol>

<!-- PLAY -->

<symbol id="play" viewBox="0 0 24 24">
  <path d="M8 6l10 6-10 6z"/>
</symbol>

<!-- PAUSE -->

<symbol id="pause" viewBox="0 0 24 24">
  <path d="M8 6v12"/>
  <path d="M16 6v12"/>
</symbol>

<!-- OFFLINE -->

<symbol id="offline" viewBox="0 0 24 24">
  <path d="M4 4l16 16"/>
  <path d="M8 10a6 6 0 018-1"/>
  <path d="M10 15a3 3 0 014 0"/>
</symbol>

<!-- WIFI -->

<symbol id="wifi" viewBox="0 0 24 24">
  <path d="M4 9a12 12 0 0116 0"/>
  <path d="M7 12a8 8 0 0110 0"/>
  <path d="M10 15a4 4 0 014 0"/>
  <circle cx="12" cy="19" r="1"/>
</symbol>

</svg>
