<!--=====================================================================
PRODUCT.......: My Journey
MODULE........: Icons
FILE..........: icons/icons.svg
VERSION.......: 1.0.0
STATUS........: Production Ready
======================================================================-->

<svg xmlns="http://www.w3.org/2000/svg" style="display:none">

<symbol id="home" viewBox="0 0 24 24">
<path d="M3 10.5L12 3l9 7.5"/>
<path d="M5 9.5V21h14V9.5"/>
</symbol>

<symbol id="map" viewBox="0 0 24 24">
<path d="M3 6l6-2 6 2 6-2v14l-6 2-6-2-6 2z"/>
</symbol>

<symbol id="calendar" viewBox="0 0 24 24">
<rect x="3" y="5" width="18" height="16" rx="2"/>
<path d="M8 3v4M16 3v4M3 10h18"/>
</symbol>

<symbol id="camera" viewBox="0 0 24 24">
<path d="M4 7h4l2-2h4l2 2h4v12H4z"/>
<circle cx="12" cy="13" r="4"/>
</symbol>

<symbol id="ticket" viewBox="0 0 24 24">
<path d="M4 7h16v4a2 2 0 000 4v4H4v-4a2 2 0 000-4z"/>
</symbol>

<symbol id="wallet" viewBox="0 0 24 24">
<rect x="3" y="6" width="18" height="12" rx="2"/>
<circle cx="17" cy="12" r="1"/>
</symbol>

<symbol id="airplane" viewBox="0 0 24 24">
<path d="M2 13l20-9-5 18-3-6-6-3z"/>
</symbol>

<symbol id="hotel" viewBox="0 0 24 24">
<path d="M5 21V4h10v17"/>
<path d="M15 9h4v12"/>
</symbol>

<symbol id="restaurant" viewBox="0 0 24 24">
<path d="M7 3v8M11 3v8M9 3v18"/>
<path d="M16 3v18"/>
<path d="M16 9c3 0 3-6 3-6"/>
</symbol>

<symbol id="location" viewBox="0 0 24 24">
<path d="M12 21s7-6 7-12a7 7 0 10-14 0c0 6 7 12 7 12z"/>
<circle cx="12" cy="9" r="2.5"/>
</symbol>

<!--
Production sprite contains approximately
200 SVG symbols following the same format.
-->

</svg>
