<?xml version="1.0" encoding="UTF-8"?>
<!-- My Journey - Safari pinned tab mask icon (monochrome silhouette derived from Bob & Cosmo logo) -->
<svg xmlns="http://www.w3.org/2000/svg" viewBox="0 0 16 16" fill="#000">
  <path d="M8 3.2c-1.7-1-3.6-1.2-5.4-.7-.3.1-.6.4-.6.8v8.1c0 .5.5.9 1 .7 1.6-.4 3.3-.2 4.7.6.2.1.4.1.6 0 1.4-.8 3.1-1 4.7-.6.5.2 1-.2 1-.7V3.3c0-.4-.3-.7-.6-.8-1.8-.5-3.7-.3-5.4.7Zm-.7 8.3c-1.3-.6-2.7-.8-4.1-.6V3.9c1.4-.3 2.8-.1 4.1.6v7Zm5.5-.6c-1.4-.2-2.8 0-4.1.6v-7c1.3-.7 2.7-.9 4.1-.6v7Z"/>
  <path d="M4 6.2l3.4 1.9.6-1-3.4-1.9z"/>
  <circle cx="11.4" cy="5" r=".8"/>
</svg>
