<!-- =======================================================================
My Journey Icons Sprite v1.0
PART 01 / Core Navigation
======================================================================= -->

<svg xmlns="http://www.w3.org/2000/svg" style="display:none">

<!-- HOME -->

<symbol id="home" viewBox="0 0 24 24">
<path d="M3 10.5L12 3l9 7.5"/>
<path d="M5 9.5V21h14V9.5"/>
<path d="M9 21v-6h6v6"/>
</symbol>

<!-- TRIP -->

<symbol id="trip" viewBox="0 0 24 24">
<path d="M5 19h14"/>
<path d="M6 17L18 5"/>
<path d="M14 5h4v4"/>
<circle cx="7" cy="17" r="1"/>
<circle cx="18" cy="5" r="1"/>
</symbol>

<!-- MAP -->

<symbol id="map" viewBox="0 0 24 24">
<path d="M3 6l6-2 6 2 6-2v14l-6 2-6-2-6 2z"/>
<path d="M9 4v16"/>
<path d="M15 6v16"/>
</symbol>

<!-- JOURNAL -->

<symbol id="journal" viewBox="0 0 24 24">
<path d="M6 3h9a3 3 0 013 3v15H9a3 3 0 00-3 3"/>
<path d="M6 3v18"/>
<path d="M10 8h5"/>
<path d="M10 12h5"/>
<path d="M10 16h3"/>
</symbol>

<!-- ALBUM -->

<symbol id="album" viewBox="0 0 24 24">
<rect x="3" y="5" width="18" height="14" rx="2"/>
<circle cx="9" cy="10" r="1.5"/>
<path d="M6 17l5-5 3 3 4-4 2 2"/>
</symbol>

<!-- MEMORIES -->

<symbol id="memories" viewBox="0 0 24 24">
<path d="M12 21s-7-4.8-7-10a4 4 0 017-2.5A4 4 0 0119 11c0 5.2-7 10-7 10z"/>
</symbol>

<!-- TICKETS -->

<symbol id="tickets" viewBox="0 0 24 24">
<path d="M4 7h16v4a2 2 0 010 4v4H4v-4a2 2 0 010-4z"/>
<path d="M12 7v10"/>
</symbol>

<!-- BUDGET -->

<symbol id="budget" viewBox="0 0 24 24">
<rect x="3" y="6" width="18" height="12" rx="2"/>
<circle cx="17" cy="12" r="1"/>
<path d="M7 12h4"/>
</symbol>

<!-- PACKING -->

<symbol id="packing" viewBox="0 0 24 24">
<rect x="6" y="5" width="12" height="15" rx="2"/>
<path d="M9 5V3h6v2"/>
<path d="M9 11h6"/>
</symbol>

<!-- TROPHIES -->

<symbol id="trophies" viewBox="0 0 24 24">
<path d="M8 4h8v4a4 4 0 01-8 0z"/>
<path d="M12 12v5"/>
<path d="M9 21h6"/>
<path d="M5 5h3v2a3 3 0 01-3 3"/>
<path d="M19 5h-3v2a3 3 0 003 3"/>
</symbol>

<!-- SETTINGS -->

<symbol id="settings" viewBox="0 0 24 24">
<circle cx="12" cy="12" r="3"/>
<path d="M12 2v3M12 19v3M2 12h3M19 12h3M5 5l2 2M17 17l2 2M19 5l-2 2M5 19l2-2"/>
</symbol>

<!-- PROFILE -->

<symbol id="profile" viewBox="0 0 24 24">
<circle cx="12" cy="8" r="4"/>
<path d="M5 20a7 7 0 0114 0"/>
</symbol>

<!-- SEARCH -->

<symbol id="search" viewBox="0 0 24 24">
<circle cx="11" cy="11" r="6"/>
<path d="M20 20l-4-4"/>
</symbol>

<!-- NOTIFICATIONS -->

<symbol id="notifications" viewBox="0 0 24 24">
<path d="M18 16H6l1-2V10a5 5 0 1110 0v4z"/>
<path d="M10 19a2 2 0 004 0"/>
</symbol>

<!-- CALENDAR -->

<symbol id="calendar" viewBox="0 0 24 24">
<rect x="3" y="5" width="18" height="16" rx="2"/>
<path d="M8 3v4M16 3v4M3 10h18"/>
</symbol>

<!-- LOCATION -->

<symbol id="location" viewBox="0 0 24 24">
<path d="M12 21s7-6 7-12a7 7 0 10-14 0c0 6 7 12 7 12z"/>
<circle cx="12" cy="9" r="2.5"/>
</symbol>

<!-- ROUTE -->

<symbol id="route" viewBox="0 0 24 24">
<circle cx="6" cy="18" r="2"/>
<circle cx="18" cy="6" r="2"/>
<path d="M8 18c5 0 5-8 10-8"/>
</symbol>

<!-- COMPASS -->

<symbol id="compass" viewBox="0 0 24 24">
<circle cx="12" cy="12" r="9"/>
<path d="M15.5 8.5l-2 5-5 2 2-5z"/>
</symbol>

<!-- GLOBE -->

<symbol id="globe" viewBox="0 0 24 24">
<circle cx="12" cy="12" r="9"/>
<path d="M3 12h18"/>
<path d="M12 3a15 15 0 010 18"/>
<path d="M12 3a15 15 0 000 18"/>
</symbol>

<!-- DASHBOARD -->

<symbol id="dashboard" viewBox="0 0 24 24">
<rect x="3" y="3" width="8" height="8" rx="2"/>
<rect x="13" y="3" width="8" height="5" rx="2"/>
<rect x="13" y="10" width="8" height="11" rx="2"/>
<rect x="3" y="13" width="8" height="8" rx="2"/>
</symbol>

</svg>
